<?xml version="1.0" encoding="utf-8" standalone="no"?>
<!DOCTYPE svg PUBLIC "-//W3C//DTD SVG 1.1//EN"
  "http://www.w3.org/Graphics/SVG/1.1/DTD/svg11.dtd">
<svg height="720pt" version="1.1" viewBox="0 0 1152 720" width="1152pt" xmlns="http://www.w3.org/2000/svg" xmlns:xlink="http://www.w3.org/1999/xlink">
 <metadata>
  <rdf:RDF xmlns:cc="http://creativecommons.org/ns#" xmlns:dc="http://purl.org/dc/elements/1.1/" xmlns:rdf="http://www.w3.org/1999/02/22-rdf-syntax-ns#">
   <cc:Work>
    <dc:type rdf:resource="http://purl.org/dc/dcmitype/StillImage"/>
    <dc:date>2023-05-10T17:06:14.705149</dc:date>
    <dc:format>image/svg+xml</dc:format>
    <dc:creator>
     <cc:Agent>
      <dc:title>Matplotlib v3.4.3, https://matplotlib.org/</dc:title>
     </cc:Agent>
    </dc:creator>
   </cc:Work>
  </rdf:RDF>
 </metadata>
 <defs>
  <style type="text/css">*{stroke-linecap:butt;stroke-linejoin:round;}</style>
 </defs>
 <g id="figure_1">
  <g id="patch_1">
   <path d="M 0 720 
L 1152 720 
L 1152 0 
L 0 0 
z
" style="fill:#ffffff;"/>
  </g>
  <g id="axes_1">
   <g id="patch_2">
    <path d="M 144 640.8 
L 1036.8 640.8 
L 1036.8 86.4 
L 144 86.4 
z
" style="fill:#ffffff;"/>
   </g>
   <g id="PathCollection_1">
    <defs>
     <path d="M -1.581139 1.581139 
L 1.581139 1.581139 
L 1.581139 -1.581139 
L -1.581139 -1.581139 
z
" id="m36a84cc034" style="stroke:#0000ff;"/>
    </defs>
    <g clip-path="url(#pbf16995686)">
     <use style="fill:#0000ff;stroke:#0000ff;" x="144" xlink:href="#m36a84cc034" y="640.8"/>
     <use style="fill:#0000ff;stroke:#0000ff;" x="162.377425" xlink:href="#m36a84cc034" y="540.069374"/>
     <use style="fill:#0000ff;stroke:#0000ff;" x="180.75485" xlink:href="#m36a84cc034" y="460.324295"/>
     <use style="fill:#0000ff;stroke:#0000ff;" x="199.132275" xlink:href="#m36a84cc034" y="393.170544"/>
     <use style="fill:#0000ff;stroke:#0000ff;" x="217.509701" xlink:href="#m36a84cc034" y="342.805231"/>
     <use style="fill:#0000ff;stroke:#0000ff;" x="235.887126" xlink:href="#m36a84cc034" y="300.834136"/>
     <use style="fill:#0000ff;stroke:#0000ff;" x="254.264551" xlink:href="#m36a84cc034" y="267.257261"/>
     <use style="fill:#0000ff;stroke:#0000ff;" x="272.641976" xlink:href="#m36a84cc034" y="237.877495"/>
     <use style="fill:#0000ff;stroke:#0000ff;" x="291.019401" xlink:href="#m36a84cc034" y="216.891948"/>
     <use style="fill:#0000ff;stroke:#0000ff;" x="309.396826" xlink:href="#m36a84cc034" y="200.10351"/>
     <use style="fill:#0000ff;stroke:#0000ff;" x="327.774252" xlink:href="#m36a84cc034" y="183.315072"/>
     <use style="fill:#0000ff;stroke:#0000ff;" x="346.151677" xlink:href="#m36a84cc034" y="170.723744"/>
     <use style="fill:#0000ff;stroke:#0000ff;" x="364.529102" xlink:href="#m36a84cc034" y="162.329525"/>
     <use style="fill:#0000ff;stroke:#0000ff;" x="382.906527" xlink:href="#m36a84cc034" y="153.935306"/>
     <use style="fill:#0000ff;stroke:#0000ff;" x="401.283952" xlink:href="#m36a84cc034" y="145.541087"/>
     <use style="fill:#0000ff;stroke:#0000ff;" x="419.661377" xlink:href="#m36a84cc034" y="141.343978"/>
     <use style="fill:#0000ff;stroke:#0000ff;" x="438.038802" xlink:href="#m36a84cc034" y="137.146869"/>
     <use style="fill:#0000ff;stroke:#0000ff;" x="456.416228" xlink:href="#m36a84cc034" y="132.949759"/>
     <use style="fill:#0000ff;stroke:#0000ff;" x="474.793653" xlink:href="#m36a84cc034" y="132.949759"/>
     <use style="fill:#0000ff;stroke:#0000ff;" x="493.171078" xlink:href="#m36a84cc034" y="128.75265"/>
     <use style="fill:#0000ff;stroke:#0000ff;" x="511.548503" xlink:href="#m36a84cc034" y="200.10351"/>
     <use style="fill:#0000ff;stroke:#0000ff;" x="529.925928" xlink:href="#m36a84cc034" y="271.45437"/>
     <use style="fill:#0000ff;stroke:#0000ff;" x="548.303353" xlink:href="#m36a84cc034" y="334.411012"/>
     <use style="fill:#0000ff;stroke:#0000ff;" x="566.680779" xlink:href="#m36a84cc034" y="380.579215"/>
     <use style="fill:#0000ff;stroke:#0000ff;" x="585.058204" xlink:href="#m36a84cc034" y="422.55031"/>
     <use style="fill:#0000ff;stroke:#0000ff;" x="603.435629" xlink:href="#m36a84cc034" y="456.127185"/>
     <use style="fill:#0000ff;stroke:#0000ff;" x="621.813054" xlink:href="#m36a84cc034" y="485.506951"/>
     <use style="fill:#0000ff;stroke:#0000ff;" x="640.190479" xlink:href="#m36a84cc034" y="510.689608"/>
     <use style="fill:#0000ff;stroke:#0000ff;" x="658.567904" xlink:href="#m36a84cc034" y="531.675155"/>
     <use style="fill:#0000ff;stroke:#0000ff;" x="676.945329" xlink:href="#m36a84cc034" y="548.463593"/>
     <use style="fill:#0000ff;stroke:#0000ff;" x="695.322755" xlink:href="#m36a84cc034" y="565.25203"/>
     <use style="fill:#0000ff;stroke:#0000ff;" x="713.70018" xlink:href="#m36a84cc034" y="577.843359"/>
     <use style="fill:#0000ff;stroke:#0000ff;" x="732.077605" xlink:href="#m36a84cc034" y="590.434687"/>
     <use style="fill:#0000ff;stroke:#0000ff;" x="750.45503" xlink:href="#m36a84cc034" y="594.631796"/>
     <use style="fill:#0000ff;stroke:#0000ff;" x="768.832455" xlink:href="#m36a84cc034" y="603.026015"/>
     <use style="fill:#0000ff;stroke:#0000ff;" x="787.20988" xlink:href="#m36a84cc034" y="611.420234"/>
     <use style="fill:#0000ff;stroke:#0000ff;" x="805.587305" xlink:href="#m36a84cc034" y="615.617343"/>
     <use style="fill:#0000ff;stroke:#0000ff;" x="823.964731" xlink:href="#m36a84cc034" y="619.814453"/>
     <use style="fill:#0000ff;stroke:#0000ff;" x="842.342156" xlink:href="#m36a84cc034" y="624.011562"/>
     <use style="fill:#0000ff;stroke:#0000ff;" x="860.719581" xlink:href="#m36a84cc034" y="628.208672"/>
     <use style="fill:#0000ff;stroke:#0000ff;" x="879.097006" xlink:href="#m36a84cc034" y="628.208672"/>
     <use style="fill:#0000ff;stroke:#0000ff;" x="897.474431" xlink:href="#m36a84cc034" y="632.405781"/>
     <use style="fill:#0000ff;stroke:#0000ff;" x="915.851856" xlink:href="#m36a84cc034" y="636.602891"/>
     <use style="fill:#0000ff;stroke:#0000ff;" x="934.229282" xlink:href="#m36a84cc034" y="636.602891"/>
     <use style="fill:#0000ff;stroke:#0000ff;" x="952.606707" xlink:href="#m36a84cc034" y="636.602891"/>
    </g>
   </g>
   <g id="matplotlib.axis_1">
    <g id="xtick_1">
     <g id="line2d_1">
      <path clip-path="url(#pbf16995686)" d="M 144 640.8 
L 144 86.4 
" style="fill:none;stroke:#000000;stroke-linecap:square;stroke-width:0.8;"/>
     </g>
     <g id="line2d_2">
      <defs>
       <path d="M 0 0 
L 0 3.5 
" id="mbd692d4805" style="stroke:#000000;stroke-width:0.8;"/>
      </defs>
      <g>
       <use style="stroke:#000000;stroke-width:0.8;" x="144" xlink:href="#mbd692d4805" y="640.8"/>
      </g>
     </g>
     <g id="text_1">
      <!-- 0 -->
      <g transform="translate(140.81875 655.398438)scale(0.1 -0.1)">
       <defs>
        <path d="M 2034 4250 
Q 1547 4250 1301 3770 
Q 1056 3291 1056 2328 
Q 1056 1369 1301 889 
Q 1547 409 2034 409 
Q 2525 409 2770 889 
Q 3016 1369 3016 2328 
Q 3016 3291 2770 3770 
Q 2525 4250 2034 4250 
z
M 2034 4750 
Q 2819 4750 3233 4129 
Q 3647 3509 3647 2328 
Q 3647 1150 3233 529 
Q 2819 -91 2034 -91 
Q 1250 -91 836 529 
Q 422 1150 422 2328 
Q 422 3509 836 4129 
Q 1250 4750 2034 4750 
z
" id="DejaVuSans-30" transform="scale(0.015625)"/>
       </defs>
       <use xlink:href="#DejaVuSans-30"/>
      </g>
     </g>
    </g>
    <g id="xtick_2">
     <g id="line2d_3">
      <path clip-path="url(#pbf16995686)" d="M 281.144964 640.8 
L 281.144964 86.4 
" style="fill:none;stroke:#000000;stroke-linecap:square;stroke-width:0.8;"/>
     </g>
     <g id="line2d_4">
      <g>
       <use style="stroke:#000000;stroke-width:0.8;" x="281.144964" xlink:href="#mbd692d4805" y="640.8"/>
      </g>
     </g>
     <g id="text_2">
      <!-- 2 -->
      <g transform="translate(277.963714 655.398438)scale(0.1 -0.1)">
       <defs>
        <path d="M 1228 531 
L 3431 531 
L 3431 0 
L 469 0 
L 469 531 
Q 828 903 1448 1529 
Q 2069 2156 2228 2338 
Q 2531 2678 2651 2914 
Q 2772 3150 2772 3378 
Q 2772 3750 2511 3984 
Q 2250 4219 1831 4219 
Q 1534 4219 1204 4116 
Q 875 4013 500 3803 
L 500 4441 
Q 881 4594 1212 4672 
Q 1544 4750 1819 4750 
Q 2544 4750 2975 4387 
Q 3406 4025 3406 3419 
Q 3406 3131 3298 2873 
Q 3191 2616 2906 2266 
Q 2828 2175 2409 1742 
Q 1991 1309 1228 531 
z
" id="DejaVuSans-32" transform="scale(0.015625)"/>
       </defs>
       <use xlink:href="#DejaVuSans-32"/>
      </g>
     </g>
    </g>
    <g id="xtick_3">
     <g id="line2d_5">
      <path clip-path="url(#pbf16995686)" d="M 418.289928 640.8 
L 418.289928 86.4 
" style="fill:none;stroke:#000000;stroke-linecap:square;stroke-width:0.8;"/>
     </g>
     <g id="line2d_6">
      <g>
       <use style="stroke:#000000;stroke-width:0.8;" x="418.289928" xlink:href="#mbd692d4805" y="640.8"/>
      </g>
     </g>
     <g id="text_3">
      <!-- 4 -->
      <g transform="translate(415.108678 655.398438)scale(0.1 -0.1)">
       <defs>
        <path d="M 2419 4116 
L 825 1625 
L 2419 1625 
L 2419 4116 
z
M 2253 4666 
L 3047 4666 
L 3047 1625 
L 3713 1625 
L 3713 1100 
L 3047 1100 
L 3047 0 
L 2419 0 
L 2419 1100 
L 313 1100 
L 313 1709 
L 2253 4666 
z
" id="DejaVuSans-34" transform="scale(0.015625)"/>
       </defs>
       <use xlink:href="#DejaVuSans-34"/>
      </g>
     </g>
    </g>
    <g id="xtick_4">
     <g id="line2d_7">
      <path clip-path="url(#pbf16995686)" d="M 555.434891 640.8 
L 555.434891 86.4 
" style="fill:none;stroke:#000000;stroke-linecap:square;stroke-width:0.8;"/>
     </g>
     <g id="line2d_8">
      <g>
       <use style="stroke:#000000;stroke-width:0.8;" x="555.434891" xlink:href="#mbd692d4805" y="640.8"/>
      </g>
     </g>
     <g id="text_4">
      <!-- 6 -->
      <g transform="translate(552.253641 655.398438)scale(0.1 -0.1)">
       <defs>
        <path d="M 2113 2584 
Q 1688 2584 1439 2293 
Q 1191 2003 1191 1497 
Q 1191 994 1439 701 
Q 1688 409 2113 409 
Q 2538 409 2786 701 
Q 3034 994 3034 1497 
Q 3034 2003 2786 2293 
Q 2538 2584 2113 2584 
z
M 3366 4563 
L 3366 3988 
Q 3128 4100 2886 4159 
Q 2644 4219 2406 4219 
Q 1781 4219 1451 3797 
Q 1122 3375 1075 2522 
Q 1259 2794 1537 2939 
Q 1816 3084 2150 3084 
Q 2853 3084 3261 2657 
Q 3669 2231 3669 1497 
Q 3669 778 3244 343 
Q 2819 -91 2113 -91 
Q 1303 -91 875 529 
Q 447 1150 447 2328 
Q 447 3434 972 4092 
Q 1497 4750 2381 4750 
Q 2619 4750 2861 4703 
Q 3103 4656 3366 4563 
z
" id="DejaVuSans-36" transform="scale(0.015625)"/>
       </defs>
       <use xlink:href="#DejaVuSans-36"/>
      </g>
     </g>
    </g>
    <g id="xtick_5">
     <g id="line2d_9">
      <path clip-path="url(#pbf16995686)" d="M 692.579855 640.8 
L 692.579855 86.4 
" style="fill:none;stroke:#000000;stroke-linecap:square;stroke-width:0.8;"/>
     </g>
     <g id="line2d_10">
      <g>
       <use style="stroke:#000000;stroke-width:0.8;" x="692.579855" xlink:href="#mbd692d4805" y="640.8"/>
      </g>
     </g>
     <g id="text_5">
      <!-- 8 -->
      <g transform="translate(689.398605 655.398438)scale(0.1 -0.1)">
       <defs>
        <path d="M 2034 2216 
Q 1584 2216 1326 1975 
Q 1069 1734 1069 1313 
Q 1069 891 1326 650 
Q 1584 409 2034 409 
Q 2484 409 2743 651 
Q 3003 894 3003 1313 
Q 3003 1734 2745 1975 
Q 2488 2216 2034 2216 
z
M 1403 2484 
Q 997 2584 770 2862 
Q 544 3141 544 3541 
Q 544 4100 942 4425 
Q 1341 4750 2034 4750 
Q 2731 4750 3128 4425 
Q 3525 4100 3525 3541 
Q 3525 3141 3298 2862 
Q 3072 2584 2669 2484 
Q 3125 2378 3379 2068 
Q 3634 1759 3634 1313 
Q 3634 634 3220 271 
Q 2806 -91 2034 -91 
Q 1263 -91 848 271 
Q 434 634 434 1313 
Q 434 1759 690 2068 
Q 947 2378 1403 2484 
z
M 1172 3481 
Q 1172 3119 1398 2916 
Q 1625 2713 2034 2713 
Q 2441 2713 2670 2916 
Q 2900 3119 2900 3481 
Q 2900 3844 2670 4047 
Q 2441 4250 2034 4250 
Q 1625 4250 1398 4047 
Q 1172 3844 1172 3481 
z
" id="DejaVuSans-38" transform="scale(0.015625)"/>
       </defs>
       <use xlink:href="#DejaVuSans-38"/>
      </g>
     </g>
    </g>
    <g id="xtick_6">
     <g id="line2d_11">
      <path clip-path="url(#pbf16995686)" d="M 829.724819 640.8 
L 829.724819 86.4 
" style="fill:none;stroke:#000000;stroke-linecap:square;stroke-width:0.8;"/>
     </g>
     <g id="line2d_12">
      <g>
       <use style="stroke:#000000;stroke-width:0.8;" x="829.724819" xlink:href="#mbd692d4805" y="640.8"/>
      </g>
     </g>
     <g id="text_6">
      <!-- 10 -->
      <g transform="translate(823.362319 655.398438)scale(0.1 -0.1)">
       <defs>
        <path d="M 794 531 
L 1825 531 
L 1825 4091 
L 703 3866 
L 703 4441 
L 1819 4666 
L 2450 4666 
L 2450 531 
L 3481 531 
L 3481 0 
L 794 0 
L 794 531 
z
" id="DejaVuSans-31" transform="scale(0.015625)"/>
       </defs>
       <use xlink:href="#DejaVuSans-31"/>
       <use x="63.623047" xlink:href="#DejaVuSans-30"/>
      </g>
     </g>
    </g>
    <g id="xtick_7">
     <g id="line2d_13">
      <path clip-path="url(#pbf16995686)" d="M 966.869783 640.8 
L 966.869783 86.4 
" style="fill:none;stroke:#000000;stroke-linecap:square;stroke-width:0.8;"/>
     </g>
     <g id="line2d_14">
      <g>
       <use style="stroke:#000000;stroke-width:0.8;" x="966.869783" xlink:href="#mbd692d4805" y="640.8"/>
      </g>
     </g>
     <g id="text_7">
      <!-- 12 -->
      <g transform="translate(960.507283 655.398438)scale(0.1 -0.1)">
       <use xlink:href="#DejaVuSans-31"/>
       <use x="63.623047" xlink:href="#DejaVuSans-32"/>
      </g>
     </g>
    </g>
    <g id="xtick_8">
     <g id="line2d_15">
      <path clip-path="url(#pbf16995686)" d="M 178.286241 640.8 
L 178.286241 86.4 
" style="fill:none;stroke:#0000ff;stroke-dasharray:0.8,1.32;stroke-dashoffset:0;stroke-width:0.8;"/>
     </g>
     <g id="line2d_16">
      <defs>
       <path d="M 0 0 
L 0 2 
" id="m3eeca397c4" style="stroke:#000000;stroke-width:0.6;"/>
      </defs>
      <g>
       <use style="stroke:#000000;stroke-width:0.6;" x="178.286241" xlink:href="#m3eeca397c4" y="640.8"/>
      </g>
     </g>
    </g>
    <g id="xtick_9">
     <g id="line2d_17">
      <path clip-path="url(#pbf16995686)" d="M 212.572482 640.8 
L 212.572482 86.4 
" style="fill:none;stroke:#0000ff;stroke-dasharray:0.8,1.32;stroke-dashoffset:0;stroke-width:0.8;"/>
     </g>
     <g id="line2d_18">
      <g>
       <use style="stroke:#000000;stroke-width:0.6;" x="212.572482" xlink:href="#m3eeca397c4" y="640.8"/>
      </g>
     </g>
    </g>
    <g id="xtick_10">
     <g id="line2d_19">
      <path clip-path="url(#pbf16995686)" d="M 246.858723 640.8 
L 246.858723 86.4 
" style="fill:none;stroke:#0000ff;stroke-dasharray:0.8,1.32;stroke-dashoffset:0;stroke-width:0.8;"/>
     </g>
     <g id="line2d_20">
      <g>
       <use style="stroke:#000000;stroke-width:0.6;" x="246.858723" xlink:href="#m3eeca397c4" y="640.8"/>
      </g>
     </g>
    </g>
    <g id="xtick_11">
     <g id="line2d_21">
      <path clip-path="url(#pbf16995686)" d="M 315.431205 640.8 
L 315.431205 86.4 
" style="fill:none;stroke:#0000ff;stroke-dasharray:0.8,1.32;stroke-dashoffset:0;stroke-width:0.8;"/>
     </g>
     <g id="line2d_22">
      <g>
       <use style="stroke:#000000;stroke-width:0.6;" x="315.431205" xlink:href="#m3eeca397c4" y="640.8"/>
      </g>
     </g>
    </g>
    <g id="xtick_12">
     <g id="line2d_23">
      <path clip-path="url(#pbf16995686)" d="M 349.717446 640.8 
L 349.717446 86.4 
" style="fill:none;stroke:#0000ff;stroke-dasharray:0.8,1.32;stroke-dashoffset:0;stroke-width:0.8;"/>
     </g>
     <g id="line2d_24">
      <g>
       <use style="stroke:#000000;stroke-width:0.6;" x="349.717446" xlink:href="#m3eeca397c4" y="640.8"/>
      </g>
     </g>
    </g>
    <g id="xtick_13">
     <g id="line2d_25">
      <path clip-path="url(#pbf16995686)" d="M 384.003687 640.8 
L 384.003687 86.4 
" style="fill:none;stroke:#0000ff;stroke-dasharray:0.8,1.32;stroke-dashoffset:0;stroke-width:0.8;"/>
     </g>
     <g id="line2d_26">
      <g>
       <use style="stroke:#000000;stroke-width:0.6;" x="384.003687" xlink:href="#m3eeca397c4" y="640.8"/>
      </g>
     </g>
    </g>
    <g id="xtick_14">
     <g id="line2d_27">
      <path clip-path="url(#pbf16995686)" d="M 452.576169 640.8 
L 452.576169 86.4 
" style="fill:none;stroke:#0000ff;stroke-dasharray:0.8,1.32;stroke-dashoffset:0;stroke-width:0.8;"/>
     </g>
     <g id="line2d_28">
      <g>
       <use style="stroke:#000000;stroke-width:0.6;" x="452.576169" xlink:href="#m3eeca397c4" y="640.8"/>
      </g>
     </g>
    </g>
    <g id="xtick_15">
     <g id="line2d_29">
      <path clip-path="url(#pbf16995686)" d="M 486.86241 640.8 
L 486.86241 86.4 
" style="fill:none;stroke:#0000ff;stroke-dasharray:0.8,1.32;stroke-dashoffset:0;stroke-width:0.8;"/>
     </g>
     <g id="line2d_30">
      <g>
       <use style="stroke:#000000;stroke-width:0.6;" x="486.86241" xlink:href="#m3eeca397c4" y="640.8"/>
      </g>
     </g>
    </g>
    <g id="xtick_16">
     <g id="line2d_31">
      <path clip-path="url(#pbf16995686)" d="M 521.148651 640.8 
L 521.148651 86.4 
" style="fill:none;stroke:#0000ff;stroke-dasharray:0.8,1.32;stroke-dashoffset:0;stroke-width:0.8;"/>
     </g>
     <g id="line2d_32">
      <g>
       <use style="stroke:#000000;stroke-width:0.6;" x="521.148651" xlink:href="#m3eeca397c4" y="640.8"/>
      </g>
     </g>
    </g>
    <g id="xtick_17">
     <g id="line2d_33">
      <path clip-path="url(#pbf16995686)" d="M 589.721132 640.8 
L 589.721132 86.4 
" style="fill:none;stroke:#0000ff;stroke-dasharray:0.8,1.32;stroke-dashoffset:0;stroke-width:0.8;"/>
     </g>
     <g id="line2d_34">
      <g>
       <use style="stroke:#000000;stroke-width:0.6;" x="589.721132" xlink:href="#m3eeca397c4" y="640.8"/>
      </g>
     </g>
    </g>
    <g id="xtick_18">
     <g id="line2d_35">
      <path clip-path="url(#pbf16995686)" d="M 624.007373 640.8 
L 624.007373 86.4 
" style="fill:none;stroke:#0000ff;stroke-dasharray:0.8,1.32;stroke-dashoffset:0;stroke-width:0.8;"/>
     </g>
     <g id="line2d_36">
      <g>
       <use style="stroke:#000000;stroke-width:0.6;" x="624.007373" xlink:href="#m3eeca397c4" y="640.8"/>
      </g>
     </g>
    </g>
    <g id="xtick_19">
     <g id="line2d_37">
      <path clip-path="url(#pbf16995686)" d="M 658.293614 640.8 
L 658.293614 86.4 
" style="fill:none;stroke:#0000ff;stroke-dasharray:0.8,1.32;stroke-dashoffset:0;stroke-width:0.8;"/>
     </g>
     <g id="line2d_38">
      <g>
       <use style="stroke:#000000;stroke-width:0.6;" x="658.293614" xlink:href="#m3eeca397c4" y="640.8"/>
      </g>
     </g>
    </g>
    <g id="xtick_20">
     <g id="line2d_39">
      <path clip-path="url(#pbf16995686)" d="M 726.866096 640.8 
L 726.866096 86.4 
" style="fill:none;stroke:#0000ff;stroke-dasharray:0.8,1.32;stroke-dashoffset:0;stroke-width:0.8;"/>
     </g>
     <g id="line2d_40">
      <g>
       <use style="stroke:#000000;stroke-width:0.6;" x="726.866096" xlink:href="#m3eeca397c4" y="640.8"/>
      </g>
     </g>
    </g>
    <g id="xtick_21">
     <g id="line2d_41">
      <path clip-path="url(#pbf16995686)" d="M 761.152337 640.8 
L 761.152337 86.4 
" style="fill:none;stroke:#0000ff;stroke-dasharray:0.8,1.32;stroke-dashoffset:0;stroke-width:0.8;"/>
     </g>
     <g id="line2d_42">
      <g>
       <use style="stroke:#000000;stroke-width:0.6;" x="761.152337" xlink:href="#m3eeca397c4" y="640.8"/>
      </g>
     </g>
    </g>
    <g id="xtick_22">
     <g id="line2d_43">
      <path clip-path="url(#pbf16995686)" d="M 795.438578 640.8 
L 795.438578 86.4 
" style="fill:none;stroke:#0000ff;stroke-dasharray:0.8,1.32;stroke-dashoffset:0;stroke-width:0.8;"/>
     </g>
     <g id="line2d_44">
      <g>
       <use style="stroke:#000000;stroke-width:0.6;" x="795.438578" xlink:href="#m3eeca397c4" y="640.8"/>
      </g>
     </g>
    </g>
    <g id="xtick_23">
     <g id="line2d_45">
      <path clip-path="url(#pbf16995686)" d="M 864.01106 640.8 
L 864.01106 86.4 
" style="fill:none;stroke:#0000ff;stroke-dasharray:0.8,1.32;stroke-dashoffset:0;stroke-width:0.8;"/>
     </g>
     <g id="line2d_46">
      <g>
       <use style="stroke:#000000;stroke-width:0.6;" x="864.01106" xlink:href="#m3eeca397c4" y="640.8"/>
      </g>
     </g>
    </g>
    <g id="xtick_24">
     <g id="line2d_47">
      <path clip-path="url(#pbf16995686)" d="M 898.297301 640.8 
L 898.297301 86.4 
" style="fill:none;stroke:#0000ff;stroke-dasharray:0.8,1.32;stroke-dashoffset:0;stroke-width:0.8;"/>
     </g>
     <g id="line2d_48">
      <g>
       <use style="stroke:#000000;stroke-width:0.6;" x="898.297301" xlink:href="#m3eeca397c4" y="640.8"/>
      </g>
     </g>
    </g>
    <g id="xtick_25">
     <g id="line2d_49">
      <path clip-path="url(#pbf16995686)" d="M 932.583542 640.8 
L 932.583542 86.4 
" style="fill:none;stroke:#0000ff;stroke-dasharray:0.8,1.32;stroke-dashoffset:0;stroke-width:0.8;"/>
     </g>
     <g id="line2d_50">
      <g>
       <use style="stroke:#000000;stroke-width:0.6;" x="932.583542" xlink:href="#m3eeca397c4" y="640.8"/>
      </g>
     </g>
    </g>
    <g id="xtick_26">
     <g id="line2d_51">
      <path clip-path="url(#pbf16995686)" d="M 1001.156024 640.8 
L 1001.156024 86.4 
" style="fill:none;stroke:#0000ff;stroke-dasharray:0.8,1.32;stroke-dashoffset:0;stroke-width:0.8;"/>
     </g>
     <g id="line2d_52">
      <g>
       <use style="stroke:#000000;stroke-width:0.6;" x="1001.156024" xlink:href="#m3eeca397c4" y="640.8"/>
      </g>
     </g>
    </g>
    <g id="xtick_27">
     <g id="line2d_53">
      <path clip-path="url(#pbf16995686)" d="M 1035.442265 640.8 
L 1035.442265 86.4 
" style="fill:none;stroke:#0000ff;stroke-dasharray:0.8,1.32;stroke-dashoffset:0;stroke-width:0.8;"/>
     </g>
     <g id="line2d_54">
      <g>
       <use style="stroke:#000000;stroke-width:0.6;" x="1035.442265" xlink:href="#m3eeca397c4" y="640.8"/>
      </g>
     </g>
    </g>
    <g id="text_8">
     <!-- t, Секунды -->
     <g transform="translate(533.68125 676.675)scale(0.2 -0.2)">
      <defs>
       <path d="M 1172 4494 
L 1172 3500 
L 2356 3500 
L 2356 3053 
L 1172 3053 
L 1172 1153 
Q 1172 725 1289 603 
Q 1406 481 1766 481 
L 2356 481 
L 2356 0 
L 1766 0 
Q 1100 0 847 248 
Q 594 497 594 1153 
L 594 3053 
L 172 3053 
L 172 3500 
L 594 3500 
L 594 4494 
L 1172 4494 
z
" id="DejaVuSans-74" transform="scale(0.015625)"/>
       <path d="M 750 794 
L 1409 794 
L 1409 256 
L 897 -744 
L 494 -744 
L 750 256 
L 750 794 
z
" id="DejaVuSans-2c" transform="scale(0.015625)"/>
       <path id="DejaVuSans-20" transform="scale(0.015625)"/>
       <path d="M 4122 4306 
L 4122 3641 
Q 3803 3938 3442 4084 
Q 3081 4231 2675 4231 
Q 1875 4231 1450 3742 
Q 1025 3253 1025 2328 
Q 1025 1406 1450 917 
Q 1875 428 2675 428 
Q 3081 428 3442 575 
Q 3803 722 4122 1019 
L 4122 359 
Q 3791 134 3420 21 
Q 3050 -91 2638 -91 
Q 1578 -91 968 557 
Q 359 1206 359 2328 
Q 359 3453 968 4101 
Q 1578 4750 2638 4750 
Q 3056 4750 3426 4639 
Q 3797 4528 4122 4306 
z
" id="DejaVuSans-421" transform="scale(0.015625)"/>
       <path d="M 3597 1894 
L 3597 1613 
L 953 1613 
Q 991 1019 1311 708 
Q 1631 397 2203 397 
Q 2534 397 2845 478 
Q 3156 559 3463 722 
L 3463 178 
Q 3153 47 2828 -22 
Q 2503 -91 2169 -91 
Q 1331 -91 842 396 
Q 353 884 353 1716 
Q 353 2575 817 3079 
Q 1281 3584 2069 3584 
Q 2775 3584 3186 3129 
Q 3597 2675 3597 1894 
z
M 3022 2063 
Q 3016 2534 2758 2815 
Q 2500 3097 2075 3097 
Q 1594 3097 1305 2825 
Q 1016 2553 972 2059 
L 3022 2063 
z
" id="DejaVuSans-435" transform="scale(0.015625)"/>
       <path d="M 581 3500 
L 1153 3500 
L 1153 1856 
L 2775 3500 
L 3481 3500 
L 2144 2147 
L 3653 0 
L 3009 0 
L 1769 1766 
L 1153 1141 
L 1153 0 
L 581 0 
L 581 3500 
z
" id="DejaVuSans-43a" transform="scale(0.015625)"/>
       <path d="M 2059 -325 
Q 1816 -950 1584 -1140 
Q 1353 -1331 966 -1331 
L 506 -1331 
L 506 -850 
L 844 -850 
Q 1081 -850 1212 -737 
Q 1344 -625 1503 -206 
L 1606 56 
L 191 3500 
L 800 3500 
L 1894 763 
L 2988 3500 
L 3597 3500 
L 2059 -325 
z
" id="DejaVuSans-443" transform="scale(0.015625)"/>
       <path d="M 581 3500 
L 1159 3500 
L 1159 2072 
L 3025 2072 
L 3025 3500 
L 3603 3500 
L 3603 0 
L 3025 0 
L 3025 1613 
L 1159 1613 
L 1159 0 
L 581 0 
L 581 3500 
z
" id="DejaVuSans-43d" transform="scale(0.015625)"/>
       <path d="M 1384 459 
L 3053 459 
L 3053 3041 
L 1844 3041 
L 1844 2603 
Q 1844 1316 1475 628 
L 1384 459 
z
M 550 459 
Q 834 584 959 850 
Q 1266 1509 1266 2838 
L 1266 3500 
L 3631 3500 
L 3631 459 
L 4091 459 
L 4091 -884 
L 3631 -884 
L 3631 0 
L 794 0 
L 794 -884 
L 334 -884 
L 334 459 
L 550 459 
z
" id="DejaVuSans-434" transform="scale(0.015625)"/>
       <path d="M 3907 3500 
L 4482 3500 
L 4482 0 
L 3907 0 
L 3907 3500 
z
M 4195 3584 
L 4195 3584 
z
M 2781 1038 
Q 2781 1319 2576 1466 
Q 2372 1613 1978 1613 
L 1159 1613 
L 1159 459 
L 1978 459 
Q 2372 459 2576 607 
Q 2781 756 2781 1038 
z
M 581 3500 
L 1159 3500 
L 1159 2072 
L 2003 2072 
Q 2672 2072 3033 1817 
Q 3394 1563 3394 1038 
Q 3394 513 3033 256 
Q 2672 0 2003 0 
L 581 0 
L 581 3500 
z
" id="DejaVuSans-44b" transform="scale(0.015625)"/>
      </defs>
      <use xlink:href="#DejaVuSans-74"/>
      <use x="39.208984" xlink:href="#DejaVuSans-2c"/>
      <use x="70.996094" xlink:href="#DejaVuSans-20"/>
      <use x="102.783203" xlink:href="#DejaVuSans-421"/>
      <use x="172.607422" xlink:href="#DejaVuSans-435"/>
      <use x="234.130859" xlink:href="#DejaVuSans-43a"/>
      <use x="294.53125" xlink:href="#DejaVuSans-443"/>
      <use x="353.710938" xlink:href="#DejaVuSans-43d"/>
      <use x="419.091797" xlink:href="#DejaVuSans-434"/>
      <use x="488.232422" xlink:href="#DejaVuSans-44b"/>
     </g>
    </g>
   </g>
   <g id="matplotlib.axis_2">
    <g id="ytick_1">
     <g id="line2d_55">
      <path clip-path="url(#pbf16995686)" d="M 144 547.509704 
L 1036.8 547.509704 
" style="fill:none;stroke:#000000;stroke-linecap:square;stroke-width:0.8;"/>
     </g>
     <g id="line2d_56">
      <defs>
       <path d="M 0 0 
L -3.5 0 
" id="m8cbc7ea53d" style="stroke:#000000;stroke-width:0.8;"/>
      </defs>
      <g>
       <use style="stroke:#000000;stroke-width:0.8;" x="144" xlink:href="#m8cbc7ea53d" y="547.509704"/>
      </g>
     </g>
     <g id="text_9">
      <!-- 0.5 -->
      <g transform="translate(121.096875 551.308923)scale(0.1 -0.1)">
       <defs>
        <path d="M 684 794 
L 1344 794 
L 1344 0 
L 684 0 
L 684 794 
z
" id="DejaVuSans-2e" transform="scale(0.015625)"/>
        <path d="M 691 4666 
L 3169 4666 
L 3169 4134 
L 1269 4134 
L 1269 2991 
Q 1406 3038 1543 3061 
Q 1681 3084 1819 3084 
Q 2600 3084 3056 2656 
Q 3513 2228 3513 1497 
Q 3513 744 3044 326 
Q 2575 -91 1722 -91 
Q 1428 -91 1123 -41 
Q 819 9 494 109 
L 494 744 
Q 775 591 1075 516 
Q 1375 441 1709 441 
Q 2250 441 2565 725 
Q 2881 1009 2881 1497 
Q 2881 1984 2565 2268 
Q 2250 2553 1709 2553 
Q 1456 2553 1204 2497 
Q 953 2441 691 2322 
L 691 4666 
z
" id="DejaVuSans-35" transform="scale(0.015625)"/>
       </defs>
       <use xlink:href="#DejaVuSans-30"/>
       <use x="63.623047" xlink:href="#DejaVuSans-2e"/>
       <use x="95.410156" xlink:href="#DejaVuSans-35"/>
      </g>
     </g>
    </g>
    <g id="ytick_2">
     <g id="line2d_57">
      <path clip-path="url(#pbf16995686)" d="M 144 452.120853 
L 1036.8 452.120853 
" style="fill:none;stroke:#000000;stroke-linecap:square;stroke-width:0.8;"/>
     </g>
     <g id="line2d_58">
      <g>
       <use style="stroke:#000000;stroke-width:0.8;" x="144" xlink:href="#m8cbc7ea53d" y="452.120853"/>
      </g>
     </g>
     <g id="text_10">
      <!-- 1.0 -->
      <g transform="translate(121.096875 455.920072)scale(0.1 -0.1)">
       <use xlink:href="#DejaVuSans-31"/>
       <use x="63.623047" xlink:href="#DejaVuSans-2e"/>
       <use x="95.410156" xlink:href="#DejaVuSans-30"/>
      </g>
     </g>
    </g>
    <g id="ytick_3">
     <g id="line2d_59">
      <path clip-path="url(#pbf16995686)" d="M 144 356.732003 
L 1036.8 356.732003 
" style="fill:none;stroke:#000000;stroke-linecap:square;stroke-width:0.8;"/>
     </g>
     <g id="line2d_60">
      <g>
       <use style="stroke:#000000;stroke-width:0.8;" x="144" xlink:href="#m8cbc7ea53d" y="356.732003"/>
      </g>
     </g>
     <g id="text_11">
      <!-- 1.5 -->
      <g transform="translate(121.096875 360.531222)scale(0.1 -0.1)">
       <use xlink:href="#DejaVuSans-31"/>
       <use x="63.623047" xlink:href="#DejaVuSans-2e"/>
       <use x="95.410156" xlink:href="#DejaVuSans-35"/>
      </g>
     </g>
    </g>
    <g id="ytick_4">
     <g id="line2d_61">
      <path clip-path="url(#pbf16995686)" d="M 144 261.343152 
L 1036.8 261.343152 
" style="fill:none;stroke:#000000;stroke-linecap:square;stroke-width:0.8;"/>
     </g>
     <g id="line2d_62">
      <g>
       <use style="stroke:#000000;stroke-width:0.8;" x="144" xlink:href="#m8cbc7ea53d" y="261.343152"/>
      </g>
     </g>
     <g id="text_12">
      <!-- 2.0 -->
      <g transform="translate(121.096875 265.142371)scale(0.1 -0.1)">
       <use xlink:href="#DejaVuSans-32"/>
       <use x="63.623047" xlink:href="#DejaVuSans-2e"/>
       <use x="95.410156" xlink:href="#DejaVuSans-30"/>
      </g>
     </g>
    </g>
    <g id="ytick_5">
     <g id="line2d_63">
      <path clip-path="url(#pbf16995686)" d="M 144 165.954301 
L 1036.8 165.954301 
" style="fill:none;stroke:#000000;stroke-linecap:square;stroke-width:0.8;"/>
     </g>
     <g id="line2d_64">
      <g>
       <use style="stroke:#000000;stroke-width:0.8;" x="144" xlink:href="#m8cbc7ea53d" y="165.954301"/>
      </g>
     </g>
     <g id="text_13">
      <!-- 2.5 -->
      <g transform="translate(121.096875 169.75352)scale(0.1 -0.1)">
       <use xlink:href="#DejaVuSans-32"/>
       <use x="63.623047" xlink:href="#DejaVuSans-2e"/>
       <use x="95.410156" xlink:href="#DejaVuSans-35"/>
      </g>
     </g>
    </g>
    <g id="ytick_6">
     <g id="line2d_65">
      <path clip-path="url(#pbf16995686)" d="M 144 623.820785 
L 1036.8 623.820785 
" style="fill:none;stroke:#0000ff;stroke-dasharray:0.8,1.32;stroke-dashoffset:0;stroke-width:0.8;"/>
     </g>
     <g id="line2d_66">
      <defs>
       <path d="M 0 0 
L -2 0 
" id="mc6f61fbc03" style="stroke:#000000;stroke-width:0.6;"/>
      </defs>
      <g>
       <use style="stroke:#000000;stroke-width:0.6;" x="144" xlink:href="#mc6f61fbc03" y="623.820785"/>
      </g>
     </g>
    </g>
    <g id="ytick_7">
     <g id="line2d_67">
      <path clip-path="url(#pbf16995686)" d="M 144 604.743014 
L 1036.8 604.743014 
" style="fill:none;stroke:#0000ff;stroke-dasharray:0.8,1.32;stroke-dashoffset:0;stroke-width:0.8;"/>
     </g>
     <g id="line2d_68">
      <g>
       <use style="stroke:#000000;stroke-width:0.6;" x="144" xlink:href="#mc6f61fbc03" y="604.743014"/>
      </g>
     </g>
    </g>
    <g id="ytick_8">
     <g id="line2d_69">
      <path clip-path="url(#pbf16995686)" d="M 144 585.665244 
L 1036.8 585.665244 
" style="fill:none;stroke:#0000ff;stroke-dasharray:0.8,1.32;stroke-dashoffset:0;stroke-width:0.8;"/>
     </g>
     <g id="line2d_70">
      <g>
       <use style="stroke:#000000;stroke-width:0.6;" x="144" xlink:href="#mc6f61fbc03" y="585.665244"/>
      </g>
     </g>
    </g>
    <g id="ytick_9">
     <g id="line2d_71">
      <path clip-path="url(#pbf16995686)" d="M 144 566.587474 
L 1036.8 566.587474 
" style="fill:none;stroke:#0000ff;stroke-dasharray:0.8,1.32;stroke-dashoffset:0;stroke-width:0.8;"/>
     </g>
     <g id="line2d_72">
      <g>
       <use style="stroke:#000000;stroke-width:0.6;" x="144" xlink:href="#mc6f61fbc03" y="566.587474"/>
      </g>
     </g>
    </g>
    <g id="ytick_10">
     <g id="line2d_73">
      <path clip-path="url(#pbf16995686)" d="M 144 528.431934 
L 1036.8 528.431934 
" style="fill:none;stroke:#0000ff;stroke-dasharray:0.8,1.32;stroke-dashoffset:0;stroke-width:0.8;"/>
     </g>
     <g id="line2d_74">
      <g>
       <use style="stroke:#000000;stroke-width:0.6;" x="144" xlink:href="#mc6f61fbc03" y="528.431934"/>
      </g>
     </g>
    </g>
    <g id="ytick_11">
     <g id="line2d_75">
      <path clip-path="url(#pbf16995686)" d="M 144 509.354164 
L 1036.8 509.354164 
" style="fill:none;stroke:#0000ff;stroke-dasharray:0.8,1.32;stroke-dashoffset:0;stroke-width:0.8;"/>
     </g>
     <g id="line2d_76">
      <g>
       <use style="stroke:#000000;stroke-width:0.6;" x="144" xlink:href="#mc6f61fbc03" y="509.354164"/>
      </g>
     </g>
    </g>
    <g id="ytick_12">
     <g id="line2d_77">
      <path clip-path="url(#pbf16995686)" d="M 144 490.276394 
L 1036.8 490.276394 
" style="fill:none;stroke:#0000ff;stroke-dasharray:0.8,1.32;stroke-dashoffset:0;stroke-width:0.8;"/>
     </g>
     <g id="line2d_78">
      <g>
       <use style="stroke:#000000;stroke-width:0.6;" x="144" xlink:href="#mc6f61fbc03" y="490.276394"/>
      </g>
     </g>
    </g>
    <g id="ytick_13">
     <g id="line2d_79">
      <path clip-path="url(#pbf16995686)" d="M 144 471.198624 
L 1036.8 471.198624 
" style="fill:none;stroke:#0000ff;stroke-dasharray:0.8,1.32;stroke-dashoffset:0;stroke-width:0.8;"/>
     </g>
     <g id="line2d_80">
      <g>
       <use style="stroke:#000000;stroke-width:0.6;" x="144" xlink:href="#mc6f61fbc03" y="471.198624"/>
      </g>
     </g>
    </g>
    <g id="ytick_14">
     <g id="line2d_81">
      <path clip-path="url(#pbf16995686)" d="M 144 433.043083 
L 1036.8 433.043083 
" style="fill:none;stroke:#0000ff;stroke-dasharray:0.8,1.32;stroke-dashoffset:0;stroke-width:0.8;"/>
     </g>
     <g id="line2d_82">
      <g>
       <use style="stroke:#000000;stroke-width:0.6;" x="144" xlink:href="#mc6f61fbc03" y="433.043083"/>
      </g>
     </g>
    </g>
    <g id="ytick_15">
     <g id="line2d_83">
      <path clip-path="url(#pbf16995686)" d="M 144 413.965313 
L 1036.8 413.965313 
" style="fill:none;stroke:#0000ff;stroke-dasharray:0.8,1.32;stroke-dashoffset:0;stroke-width:0.8;"/>
     </g>
     <g id="line2d_84">
      <g>
       <use style="stroke:#000000;stroke-width:0.6;" x="144" xlink:href="#mc6f61fbc03" y="413.965313"/>
      </g>
     </g>
    </g>
    <g id="ytick_16">
     <g id="line2d_85">
      <path clip-path="url(#pbf16995686)" d="M 144 394.887543 
L 1036.8 394.887543 
" style="fill:none;stroke:#0000ff;stroke-dasharray:0.8,1.32;stroke-dashoffset:0;stroke-width:0.8;"/>
     </g>
     <g id="line2d_86">
      <g>
       <use style="stroke:#000000;stroke-width:0.6;" x="144" xlink:href="#mc6f61fbc03" y="394.887543"/>
      </g>
     </g>
    </g>
    <g id="ytick_17">
     <g id="line2d_87">
      <path clip-path="url(#pbf16995686)" d="M 144 375.809773 
L 1036.8 375.809773 
" style="fill:none;stroke:#0000ff;stroke-dasharray:0.8,1.32;stroke-dashoffset:0;stroke-width:0.8;"/>
     </g>
     <g id="line2d_88">
      <g>
       <use style="stroke:#000000;stroke-width:0.6;" x="144" xlink:href="#mc6f61fbc03" y="375.809773"/>
      </g>
     </g>
    </g>
    <g id="ytick_18">
     <g id="line2d_89">
      <path clip-path="url(#pbf16995686)" d="M 144 337.654233 
L 1036.8 337.654233 
" style="fill:none;stroke:#0000ff;stroke-dasharray:0.8,1.32;stroke-dashoffset:0;stroke-width:0.8;"/>
     </g>
     <g id="line2d_90">
      <g>
       <use style="stroke:#000000;stroke-width:0.6;" x="144" xlink:href="#mc6f61fbc03" y="337.654233"/>
      </g>
     </g>
    </g>
    <g id="ytick_19">
     <g id="line2d_91">
      <path clip-path="url(#pbf16995686)" d="M 144 318.576462 
L 1036.8 318.576462 
" style="fill:none;stroke:#0000ff;stroke-dasharray:0.8,1.32;stroke-dashoffset:0;stroke-width:0.8;"/>
     </g>
     <g id="line2d_92">
      <g>
       <use style="stroke:#000000;stroke-width:0.6;" x="144" xlink:href="#mc6f61fbc03" y="318.576462"/>
      </g>
     </g>
    </g>
    <g id="ytick_20">
     <g id="line2d_93">
      <path clip-path="url(#pbf16995686)" d="M 144 299.498692 
L 1036.8 299.498692 
" style="fill:none;stroke:#0000ff;stroke-dasharray:0.8,1.32;stroke-dashoffset:0;stroke-width:0.8;"/>
     </g>
     <g id="line2d_94">
      <g>
       <use style="stroke:#000000;stroke-width:0.6;" x="144" xlink:href="#mc6f61fbc03" y="299.498692"/>
      </g>
     </g>
    </g>
    <g id="ytick_21">
     <g id="line2d_95">
      <path clip-path="url(#pbf16995686)" d="M 144 280.420922 
L 1036.8 280.420922 
" style="fill:none;stroke:#0000ff;stroke-dasharray:0.8,1.32;stroke-dashoffset:0;stroke-width:0.8;"/>
     </g>
     <g id="line2d_96">
      <g>
       <use style="stroke:#000000;stroke-width:0.6;" x="144" xlink:href="#mc6f61fbc03" y="280.420922"/>
      </g>
     </g>
    </g>
    <g id="ytick_22">
     <g id="line2d_97">
      <path clip-path="url(#pbf16995686)" d="M 144 242.265382 
L 1036.8 242.265382 
" style="fill:none;stroke:#0000ff;stroke-dasharray:0.8,1.32;stroke-dashoffset:0;stroke-width:0.8;"/>
     </g>
     <g id="line2d_98">
      <g>
       <use style="stroke:#000000;stroke-width:0.6;" x="144" xlink:href="#mc6f61fbc03" y="242.265382"/>
      </g>
     </g>
    </g>
    <g id="ytick_23">
     <g id="line2d_99">
      <path clip-path="url(#pbf16995686)" d="M 144 223.187612 
L 1036.8 223.187612 
" style="fill:none;stroke:#0000ff;stroke-dasharray:0.8,1.32;stroke-dashoffset:0;stroke-width:0.8;"/>
     </g>
     <g id="line2d_100">
      <g>
       <use style="stroke:#000000;stroke-width:0.6;" x="144" xlink:href="#mc6f61fbc03" y="223.187612"/>
      </g>
     </g>
    </g>
    <g id="ytick_24">
     <g id="line2d_101">
      <path clip-path="url(#pbf16995686)" d="M 144 204.109842 
L 1036.8 204.109842 
" style="fill:none;stroke:#0000ff;stroke-dasharray:0.8,1.32;stroke-dashoffset:0;stroke-width:0.8;"/>
     </g>
     <g id="line2d_102">
      <g>
       <use style="stroke:#000000;stroke-width:0.6;" x="144" xlink:href="#mc6f61fbc03" y="204.109842"/>
      </g>
     </g>
    </g>
    <g id="ytick_25">
     <g id="line2d_103">
      <path clip-path="url(#pbf16995686)" d="M 144 185.032072 
L 1036.8 185.032072 
" style="fill:none;stroke:#0000ff;stroke-dasharray:0.8,1.32;stroke-dashoffset:0;stroke-width:0.8;"/>
     </g>
     <g id="line2d_104">
      <g>
       <use style="stroke:#000000;stroke-width:0.6;" x="144" xlink:href="#mc6f61fbc03" y="185.032072"/>
      </g>
     </g>
    </g>
    <g id="ytick_26">
     <g id="line2d_105">
      <path clip-path="url(#pbf16995686)" d="M 144 146.876531 
L 1036.8 146.876531 
" style="fill:none;stroke:#0000ff;stroke-dasharray:0.8,1.32;stroke-dashoffset:0;stroke-width:0.8;"/>
     </g>
     <g id="line2d_106">
      <g>
       <use style="stroke:#000000;stroke-width:0.6;" x="144" xlink:href="#mc6f61fbc03" y="146.876531"/>
      </g>
     </g>
    </g>
    <g id="ytick_27">
     <g id="line2d_107">
      <path clip-path="url(#pbf16995686)" d="M 144 127.798761 
L 1036.8 127.798761 
" style="fill:none;stroke:#0000ff;stroke-dasharray:0.8,1.32;stroke-dashoffset:0;stroke-width:0.8;"/>
     </g>
     <g id="line2d_108">
      <g>
       <use style="stroke:#000000;stroke-width:0.6;" x="144" xlink:href="#mc6f61fbc03" y="127.798761"/>
      </g>
     </g>
    </g>
    <g id="ytick_28">
     <g id="line2d_109">
      <path clip-path="url(#pbf16995686)" d="M 144 108.720991 
L 1036.8 108.720991 
" style="fill:none;stroke:#0000ff;stroke-dasharray:0.8,1.32;stroke-dashoffset:0;stroke-width:0.8;"/>
     </g>
     <g id="line2d_110">
      <g>
       <use style="stroke:#000000;stroke-width:0.6;" x="144" xlink:href="#mc6f61fbc03" y="108.720991"/>
      </g>
     </g>
    </g>
    <g id="ytick_29">
     <g id="line2d_111">
      <path clip-path="url(#pbf16995686)" d="M 144 89.643221 
L 1036.8 89.643221 
" style="fill:none;stroke:#0000ff;stroke-dasharray:0.8,1.32;stroke-dashoffset:0;stroke-width:0.8;"/>
     </g>
     <g id="line2d_112">
      <g>
       <use style="stroke:#000000;stroke-width:0.6;" x="144" xlink:href="#mc6f61fbc03" y="89.643221"/>
      </g>
     </g>
    </g>
    <g id="text_14">
     <!-- U, Вольты -->
     <g transform="translate(112.9375 416.260937)rotate(-90)scale(0.2 -0.2)">
      <defs>
       <path d="M 556 4666 
L 1191 4666 
L 1191 1831 
Q 1191 1081 1462 751 
Q 1734 422 2344 422 
Q 2950 422 3222 751 
Q 3494 1081 3494 1831 
L 3494 4666 
L 4128 4666 
L 4128 1753 
Q 4128 841 3676 375 
Q 3225 -91 2344 -91 
Q 1459 -91 1007 375 
Q 556 841 556 1753 
L 556 4666 
z
" id="DejaVuSans-55" transform="scale(0.015625)"/>
       <path d="M 1259 2228 
L 1259 519 
L 2272 519 
Q 2781 519 3026 730 
Q 3272 941 3272 1375 
Q 3272 1813 3026 2020 
Q 2781 2228 2272 2228 
L 1259 2228 
z
M 1259 4147 
L 1259 2741 
L 2194 2741 
Q 2656 2741 2882 2914 
Q 3109 3088 3109 3444 
Q 3109 3797 2882 3972 
Q 2656 4147 2194 4147 
L 1259 4147 
z
M 628 4666 
L 2241 4666 
Q 2963 4666 3353 4366 
Q 3744 4066 3744 3513 
Q 3744 3084 3544 2831 
Q 3344 2578 2956 2516 
Q 3422 2416 3680 2098 
Q 3938 1781 3938 1306 
Q 3938 681 3513 340 
Q 3088 0 2303 0 
L 628 0 
L 628 4666 
z
" id="DejaVuSans-412" transform="scale(0.015625)"/>
       <path d="M 1959 3097 
Q 1497 3097 1228 2736 
Q 959 2375 959 1747 
Q 959 1119 1226 758 
Q 1494 397 1959 397 
Q 2419 397 2687 759 
Q 2956 1122 2956 1747 
Q 2956 2369 2687 2733 
Q 2419 3097 1959 3097 
z
M 1959 3584 
Q 2709 3584 3137 3096 
Q 3566 2609 3566 1747 
Q 3566 888 3137 398 
Q 2709 -91 1959 -91 
Q 1206 -91 779 398 
Q 353 888 353 1747 
Q 353 2609 779 3096 
Q 1206 3584 1959 3584 
z
" id="DejaVuSans-43e" transform="scale(0.015625)"/>
       <path d="M 238 0 
L 238 478 
Q 806 566 981 959 
Q 1194 1513 1194 2928 
L 1194 3500 
L 3559 3500 
L 3559 0 
L 2984 0 
L 2984 3041 
L 1769 3041 
L 1769 2694 
Q 1769 1344 1494 738 
Q 1200 91 238 0 
z
" id="DejaVuSans-43b" transform="scale(0.015625)"/>
       <path d="M 2781 1038 
Q 2781 1319 2576 1466 
Q 2372 1613 1978 1613 
L 1159 1613 
L 1159 459 
L 1978 459 
Q 2372 459 2576 607 
Q 2781 756 2781 1038 
z
M 581 3500 
L 1159 3500 
L 1159 2072 
L 2003 2072 
Q 2672 2072 3033 1817 
Q 3394 1563 3394 1038 
Q 3394 513 3033 256 
Q 2672 0 2003 0 
L 581 0 
L 581 3500 
z
" id="DejaVuSans-44c" transform="scale(0.015625)"/>
       <path d="M 188 3500 
L 3541 3500 
L 3541 3041 
L 2147 3041 
L 2147 0 
L 1581 0 
L 1581 3041 
L 188 3041 
L 188 3500 
z
" id="DejaVuSans-442" transform="scale(0.015625)"/>
      </defs>
      <use xlink:href="#DejaVuSans-55"/>
      <use x="73.193359" xlink:href="#DejaVuSans-2c"/>
      <use x="104.980469" xlink:href="#DejaVuSans-20"/>
      <use x="136.767578" xlink:href="#DejaVuSans-412"/>
      <use x="205.371094" xlink:href="#DejaVuSans-43e"/>
      <use x="266.552734" xlink:href="#DejaVuSans-43b"/>
      <use x="330.46875" xlink:href="#DejaVuSans-44c"/>
      <use x="389.404297" xlink:href="#DejaVuSans-442"/>
      <use x="447.65625" xlink:href="#DejaVuSans-44b"/>
     </g>
    </g>
   </g>
   <g id="line2d_113">
    <path clip-path="url(#pbf16995686)" d="M 144 640.8 
L 144.918871 632.405781 
L 147.675485 619.814453 
L 148.594356 611.420234 
L 150.432099 603.026015 
L 151.35097 594.631796 
L 152.269841 594.631796 
L 153.188713 586.237577 
L 154.107584 586.237577 
L 155.026455 577.843359 
L 155.945326 577.843359 
L 156.864198 565.25203 
L 168.809524 510.689608 
L 169.728395 510.689608 
L 170.647266 502.295389 
L 174.322752 485.506951 
L 175.241623 485.506951 
L 176.160494 477.112732 
L 177.079365 477.112732 
L 184.430335 443.535857 
L 185.349207 443.535857 
L 189.024692 426.747419 
L 189.943563 426.747419 
L 193.619048 409.958981 
L 194.537919 409.958981 
L 196.375662 401.564763 
L 197.294533 401.564763 
L 199.132275 393.170544 
L 200.051147 393.170544 
L 201.888889 384.776325 
L 202.80776 384.776325 
L 204.645503 376.382106 
L 206.483246 376.382106 
L 207.402117 367.987887 
L 208.320988 367.987887 
L 209.239859 363.790778 
L 210.158731 363.790778 
L 211.996473 355.396559 
L 212.915344 355.396559 
L 213.834216 351.199449 
L 214.753087 351.199449 
L 216.590829 342.805231 
L 218.428572 342.805231 
L 220.266314 334.411012 
L 222.104057 334.411012 
L 223.941799 326.016793 
L 224.860671 326.016793 
L 225.779542 321.819683 
L 226.698413 321.819683 
L 227.617284 317.622574 
L 228.536156 317.622574 
L 229.455027 313.425465 
L 230.373898 313.425465 
L 231.292769 309.228355 
L 234.049383 309.228355 
L 234.968255 300.834136 
L 236.805997 300.834136 
L 237.724868 296.637027 
L 238.64374 296.637027 
L 239.562611 292.439917 
L 241.400353 292.439917 
L 242.319225 288.242808 
L 243.238096 288.242808 
L 244.156967 284.045699 
L 245.075838 284.045699 
L 245.99471 279.848589 
L 248.751323 279.848589 
L 250.589066 271.45437 
L 252.426808 271.45437 
L 253.34568 267.257261 
L 255.183422 267.257261 
L 256.102293 263.060151 
L 257.021165 263.060151 
L 257.940036 258.863042 
L 260.69665 258.863042 
L 261.615521 254.665933 
L 262.534392 254.665933 
L 263.453263 250.468823 
L 265.291006 250.468823 
L 266.209877 246.271714 
L 268.966491 246.271714 
L 270.804234 237.877495 
L 276.317461 237.877495 
L 278.155204 229.483276 
L 281.830689 229.483276 
L 282.74956 225.286167 
L 285.506174 225.286167 
L 286.425045 221.089057 
L 288.262787 221.089057 
L 289.181659 216.891948 
L 291.019401 216.891948 
L 291.938272 212.694838 
L 295.613758 212.694838 
L 296.532629 208.497729 
L 300.208114 208.497729 
L 301.126985 204.300619 
L 304.80247 204.300619 
L 305.721341 200.10351 
L 309.396826 200.10351 
L 310.315698 195.906401 
L 312.15344 195.906401 
L 313.072311 191.709291 
L 313.991183 195.906401 
L 314.910054 191.709291 
L 317.666668 191.709291 
L 318.585539 187.512182 
L 325.017638 187.512182 
L 325.936509 183.315072 
L 330.530865 183.315072 
L 331.449737 179.117963 
L 336.044093 179.117963 
L 336.962964 174.920853 
L 340.638449 174.920853 
L 341.55732 170.723744 
L 351.664904 170.723744 
L 352.583775 166.526635 
L 359.934746 166.526635 
L 360.853617 162.329525 
L 361.772488 166.526635 
L 362.691359 162.329525 
L 367.285716 162.329525 
L 368.204587 158.132416 
L 369.123458 162.329525 
L 370.042329 158.132416 
L 378.312171 158.132416 
L 379.231042 153.935306 
L 387.500883 153.935306 
L 388.419755 149.738197 
L 396.689596 149.738197 
L 397.608467 145.541087 
L 398.527338 149.738197 
L 399.44621 149.738197 
L 400.365081 145.541087 
L 408.634922 145.541087 
L 409.553793 141.343978 
L 410.472665 145.541087 
L 411.391536 145.541087 
L 412.310407 141.343978 
L 413.229278 145.541087 
L 414.14815 145.541087 
L 415.067021 141.343978 
L 422.417991 141.343978 
L 423.336862 137.146869 
L 424.255734 141.343978 
L 425.174605 141.343978 
L 426.093476 137.146869 
L 427.012347 137.146869 
L 427.931219 141.343978 
L 430.687832 141.343978 
L 431.606704 137.146869 
L 449.065258 137.146869 
L 449.984129 132.949759 
L 450.903 137.146869 
L 451.821871 132.949759 
L 472.037039 132.949759 
L 472.95591 128.75265 
L 473.874781 128.75265 
L 474.793653 132.949759 
L 475.712524 132.949759 
L 476.631395 128.75265 
L 477.550267 128.75265 
L 478.469138 132.949759 
L 479.388009 128.75265 
L 495.00882 128.75265 
L 495.927692 124.55554 
L 496.846563 132.949759 
L 497.765434 137.146869 
L 498.684305 137.146869 
L 499.603177 145.541087 
L 501.440919 153.935306 
L 502.35979 162.329525 
L 503.278662 162.329525 
L 504.197533 170.723744 
L 505.116404 170.723744 
L 506.035276 179.117963 
L 507.873018 187.512182 
L 508.791889 187.512182 
L 509.710761 195.906401 
L 510.629632 195.906401 
L 519.818344 237.877495 
L 520.737216 237.877495 
L 525.331572 258.863042 
L 526.250443 258.863042 
L 527.169314 267.257261 
L 528.088186 267.257261 
L 529.007057 271.45437 
L 529.925928 271.45437 
L 534.520284 292.439917 
L 535.439156 292.439917 
L 539.114641 309.228355 
L 540.033512 309.228355 
L 541.871255 317.622574 
L 542.790126 317.622574 
L 543.708997 321.819683 
L 544.627868 321.819683 
L 547.384482 334.411012 
L 548.303353 334.411012 
L 549.222225 338.608121 
L 550.141096 338.608121 
L 551.978838 347.00234 
L 552.89771 347.00234 
L 554.735452 355.396559 
L 555.654323 355.396559 
L 556.573195 359.593668 
L 557.492066 359.593668 
L 558.410937 363.790778 
L 559.329808 363.790778 
L 560.24868 367.987887 
L 561.167551 367.987887 
L 562.086422 372.184997 
L 563.005293 372.184997 
L 563.924165 376.382106 
L 564.843036 376.382106 
L 565.761907 380.579215 
L 566.680779 380.579215 
L 568.518521 388.973434 
L 570.356264 388.973434 
L 571.275135 393.170544 
L 572.194006 393.170544 
L 573.112877 397.367653 
L 574.031749 397.367653 
L 575.869491 405.761872 
L 577.707234 405.761872 
L 578.626105 409.958981 
L 579.544976 409.958981 
L 580.463847 414.156091 
L 581.382719 414.156091 
L 582.30159 418.3532 
L 583.220461 418.3532 
L 584.139332 422.55031 
L 585.977075 422.55031 
L 586.895946 426.747419 
L 587.814817 426.747419 
L 588.733689 430.944529 
L 589.65256 430.944529 
L 590.571431 435.141638 
L 591.490302 435.141638 
L 592.409174 439.338747 
L 595.165787 439.338747 
L 597.00353 447.732966 
L 598.841273 447.732966 
L 599.760144 451.930076 
L 600.679015 451.930076 
L 601.597886 456.127185 
L 604.3545 456.127185 
L 605.273371 460.324295 
L 606.192243 460.324295 
L 607.111114 464.521404 
L 608.948856 464.521404 
L 609.867728 468.718513 
L 610.786599 468.718513 
L 611.70547 472.915623 
L 613.543213 472.915623 
L 614.462084 477.112732 
L 617.218698 477.112732 
L 618.137569 481.309842 
L 619.975311 481.309842 
L 620.894183 485.506951 
L 622.731925 485.506951 
L 623.650796 489.704061 
L 626.40741 489.704061 
L 627.326282 493.90117 
L 628.245153 493.90117 
L 629.164024 498.098279 
L 631.920638 498.098279 
L 632.839509 502.295389 
L 634.677252 502.295389 
L 635.596123 506.492498 
L 636.514994 506.492498 
L 637.433865 510.689608 
L 642.947093 510.689608 
L 643.865964 514.886717 
L 645.703707 514.886717 
L 646.622578 519.083827 
L 648.46032 519.083827 
L 649.379192 523.280936 
L 653.054677 523.280936 
L 653.973548 527.478045 
L 656.730162 527.478045 
L 657.649033 531.675155 
L 659.486776 531.675155 
L 660.405647 535.872264 
L 664.081132 535.872264 
L 665.000003 540.069374 
L 668.675488 540.069374 
L 669.594359 544.266483 
L 670.513231 540.069374 
L 671.432102 544.266483 
L 673.269844 544.266483 
L 674.188716 548.463593 
L 677.864201 548.463593 
L 678.783072 552.660702 
L 682.458557 552.660702 
L 683.377428 556.857811 
L 687.052913 556.857811 
L 687.971785 561.054921 
L 693.485012 561.054921 
L 694.403883 565.25203 
L 698.079368 565.25203 
L 698.99824 569.44914 
L 702.673725 569.44914 
L 703.592596 573.646249 
L 704.511467 569.44914 
L 705.430338 573.646249 
L 708.186952 573.646249 
L 709.105823 577.843359 
L 718.294536 577.843359 
L 719.213407 582.040468 
L 725.645506 582.040468 
L 726.564377 586.237577 
L 731.158734 586.237577 
L 732.077605 590.434687 
L 740.347446 590.434687 
L 741.266317 594.631796 
L 750.45503 594.631796 
L 751.373901 598.828906 
L 758.724871 598.828906 
L 759.643743 603.026015 
L 760.562614 598.828906 
L 761.481485 603.026015 
L 771.589069 603.026015 
L 772.50794 607.223125 
L 780.777782 607.223125 
L 781.696653 611.420234 
L 796.398593 611.420234 
L 797.317464 615.617343 
L 812.019404 615.617343 
L 812.938276 619.814453 
L 813.857147 615.617343 
L 814.776018 619.814453 
L 829.477958 619.814453 
L 830.396829 624.011562 
L 849.693126 624.011562 
L 850.611997 628.208672 
L 851.530868 624.011562 
L 854.287482 624.011562 
L 855.206353 628.208672 
L 856.125225 628.208672 
L 857.044096 624.011562 
L 857.962967 628.208672 
L 876.340392 628.208672 
L 877.259264 632.405781 
L 878.178135 628.208672 
L 885.529105 628.208672 
L 886.447976 632.405781 
L 888.285719 632.405781 
L 889.20459 628.208672 
L 890.123461 632.405781 
L 914.932985 632.405781 
L 915.851856 636.602891 
L 916.770728 632.405781 
L 918.60847 632.405781 
L 919.527341 636.602891 
L 967.308647 636.602891 
L 968.227518 640.8 
L 968.227518 640.8 
" style="fill:none;stroke:#000000;stroke-linecap:square;"/>
   </g>
   <g id="patch_3">
    <path d="M 144 640.8 
L 144 86.4 
" style="fill:none;stroke:#000000;stroke-linecap:square;stroke-linejoin:miter;stroke-width:0.8;"/>
   </g>
   <g id="patch_4">
    <path d="M 1036.8 640.8 
L 1036.8 86.4 
" style="fill:none;stroke:#000000;stroke-linecap:square;stroke-linejoin:miter;stroke-width:0.8;"/>
   </g>
   <g id="patch_5">
    <path d="M 144 640.8 
L 1036.8 640.8 
" style="fill:none;stroke:#000000;stroke-linecap:square;stroke-linejoin:miter;stroke-width:0.8;"/>
   </g>
   <g id="patch_6">
    <path d="M 144 86.4 
L 1036.8 86.4 
" style="fill:none;stroke:#000000;stroke-linecap:square;stroke-linejoin:miter;stroke-width:0.8;"/>
   </g>
   <g id="text_15">
    <!-- Время зарядки ~ 6.1с -->
    <g transform="translate(555.434891 213.648727)scale(0.25 -0.25)">
     <defs>
      <path d="M 1159 525 
L 1159 -1331 
L 581 -1331 
L 581 3500 
L 1159 3500 
L 1159 2969 
Q 1341 3281 1617 3432 
Q 1894 3584 2278 3584 
Q 2916 3584 3314 3078 
Q 3713 2572 3713 1747 
Q 3713 922 3314 415 
Q 2916 -91 2278 -91 
Q 1894 -91 1617 61 
Q 1341 213 1159 525 
z
M 3116 1747 
Q 3116 2381 2855 2742 
Q 2594 3103 2138 3103 
Q 1681 3103 1420 2742 
Q 1159 2381 1159 1747 
Q 1159 1113 1420 752 
Q 1681 391 2138 391 
Q 2594 391 2855 752 
Q 3116 1113 3116 1747 
z
" id="DejaVuSans-440" transform="scale(0.015625)"/>
      <path d="M 581 3500 
L 1422 3500 
L 2416 1156 
L 3413 3500 
L 4247 3500 
L 4247 0 
L 3669 0 
L 3669 2950 
L 2703 672 
L 2128 672 
L 1159 2950 
L 1159 0 
L 581 0 
L 581 3500 
z
" id="DejaVuSans-43c" transform="scale(0.015625)"/>
      <path d="M 1181 2491 
Q 1181 2231 1381 2084 
Q 1581 1938 1953 1938 
L 2728 1938 
L 2728 3041 
L 1953 3041 
Q 1581 3041 1381 2897 
Q 1181 2753 1181 2491 
z
M 363 0 
L 1431 1534 
Q 1069 1616 828 1830 
Q 588 2044 588 2491 
Q 588 2997 923 3248 
Q 1259 3500 1938 3500 
L 3306 3500 
L 3306 0 
L 2728 0 
L 2728 1478 
L 2013 1478 
L 981 0 
L 363 0 
z
" id="DejaVuSans-44f" transform="scale(0.015625)"/>
      <path d="M 2206 1888 
Q 2594 1813 2809 1584 
Q 3025 1356 3025 1019 
Q 3025 478 2622 193 
Q 2219 -91 1475 -91 
Q 1225 -91 961 -47 
Q 697 -3 416 84 
L 416 619 
Q 638 503 903 445 
Q 1169 388 1459 388 
Q 1931 388 2195 563 
Q 2459 738 2459 1019 
Q 2459 1294 2225 1461 
Q 1991 1628 1563 1628 
L 1100 1628 
L 1100 2103 
L 1584 2103 
Q 1947 2103 2158 2242 
Q 2369 2381 2369 2600 
Q 2369 2800 2151 2944 
Q 1934 3088 1563 3088 
Q 1341 3088 1089 3047 
Q 838 3006 534 2916 
L 534 3438 
Q 841 3513 1106 3550 
Q 1372 3588 1609 3588 
Q 2222 3588 2576 3342 
Q 2931 3097 2931 2656 
Q 2931 2366 2743 2164 
Q 2556 1963 2206 1888 
z
" id="DejaVuSans-437" transform="scale(0.015625)"/>
      <path d="M 2194 1759 
Q 1497 1759 1228 1600 
Q 959 1441 959 1056 
Q 959 750 1161 570 
Q 1363 391 1709 391 
Q 2188 391 2477 730 
Q 2766 1069 2766 1631 
L 2766 1759 
L 2194 1759 
z
M 3341 1997 
L 3341 0 
L 2766 0 
L 2766 531 
Q 2569 213 2275 61 
Q 1981 -91 1556 -91 
Q 1019 -91 701 211 
Q 384 513 384 1019 
Q 384 1609 779 1909 
Q 1175 2209 1959 2209 
L 2766 2209 
L 2766 2266 
Q 2766 2663 2505 2880 
Q 2244 3097 1772 3097 
Q 1472 3097 1187 3025 
Q 903 2953 641 2809 
L 641 3341 
Q 956 3463 1253 3523 
Q 1550 3584 1831 3584 
Q 2591 3584 2966 3190 
Q 3341 2797 3341 1997 
z
" id="DejaVuSans-430" transform="scale(0.015625)"/>
      <path d="M 3578 3500 
L 3578 0 
L 3006 0 
L 3006 2809 
L 1319 0 
L 581 0 
L 581 3500 
L 1153 3500 
L 1153 697 
L 2838 3500 
L 3578 3500 
z
" id="DejaVuSans-438" transform="scale(0.015625)"/>
      <path d="M 4684 2553 
L 4684 1997 
Q 4356 1750 4076 1644 
Q 3797 1538 3494 1538 
Q 3150 1538 2694 1722 
Q 2659 1734 2644 1741 
Q 2622 1750 2575 1766 
Q 2091 1959 1797 1959 
Q 1522 1959 1253 1839 
Q 984 1719 678 1459 
L 678 2016 
Q 1006 2263 1286 2370 
Q 1566 2478 1869 2478 
Q 2213 2478 2672 2291 
Q 2703 2278 2719 2272 
Q 2744 2263 2788 2247 
Q 3272 2053 3566 2053 
Q 3834 2053 4098 2172 
Q 4363 2291 4684 2553 
z
" id="DejaVuSans-7e" transform="scale(0.015625)"/>
      <path d="M 3122 3366 
L 3122 2828 
Q 2878 2963 2633 3030 
Q 2388 3097 2138 3097 
Q 1578 3097 1268 2742 
Q 959 2388 959 1747 
Q 959 1106 1268 751 
Q 1578 397 2138 397 
Q 2388 397 2633 464 
Q 2878 531 3122 666 
L 3122 134 
Q 2881 22 2623 -34 
Q 2366 -91 2075 -91 
Q 1284 -91 818 406 
Q 353 903 353 1747 
Q 353 2603 823 3093 
Q 1294 3584 2113 3584 
Q 2378 3584 2631 3529 
Q 2884 3475 3122 3366 
z
" id="DejaVuSans-441" transform="scale(0.015625)"/>
     </defs>
     <use xlink:href="#DejaVuSans-412"/>
     <use x="68.603516" xlink:href="#DejaVuSans-440"/>
     <use x="132.080078" xlink:href="#DejaVuSans-435"/>
     <use x="193.603516" xlink:href="#DejaVuSans-43c"/>
     <use x="269.042969" xlink:href="#DejaVuSans-44f"/>
     <use x="329.199219" xlink:href="#DejaVuSans-20"/>
     <use x="360.986328" xlink:href="#DejaVuSans-437"/>
     <use x="414.160156" xlink:href="#DejaVuSans-430"/>
     <use x="475.439453" xlink:href="#DejaVuSans-440"/>
     <use x="538.916016" xlink:href="#DejaVuSans-44f"/>
     <use x="599.072266" xlink:href="#DejaVuSans-434"/>
     <use x="668.212891" xlink:href="#DejaVuSans-43a"/>
     <use x="728.613281" xlink:href="#DejaVuSans-438"/>
     <use x="793.603516" xlink:href="#DejaVuSans-20"/>
     <use x="825.390625" xlink:href="#DejaVuSans-7e"/>
     <use x="909.179688" xlink:href="#DejaVuSans-20"/>
     <use x="940.966797" xlink:href="#DejaVuSans-36"/>
     <use x="1004.589844" xlink:href="#DejaVuSans-2e"/>
     <use x="1036.376953" xlink:href="#DejaVuSans-31"/>
     <use x="1100" xlink:href="#DejaVuSans-441"/>
    </g>
   </g>
   <g id="text_16">
    <!-- Время разрядки ~ 6.9с -->
    <g transform="translate(555.434891 309.037577)scale(0.25 -0.25)">
     <defs>
      <path d="M 703 97 
L 703 672 
Q 941 559 1184 500 
Q 1428 441 1663 441 
Q 2288 441 2617 861 
Q 2947 1281 2994 2138 
Q 2813 1869 2534 1725 
Q 2256 1581 1919 1581 
Q 1219 1581 811 2004 
Q 403 2428 403 3163 
Q 403 3881 828 4315 
Q 1253 4750 1959 4750 
Q 2769 4750 3195 4129 
Q 3622 3509 3622 2328 
Q 3622 1225 3098 567 
Q 2575 -91 1691 -91 
Q 1453 -91 1209 -44 
Q 966 3 703 97 
z
M 1959 2075 
Q 2384 2075 2632 2365 
Q 2881 2656 2881 3163 
Q 2881 3666 2632 3958 
Q 2384 4250 1959 4250 
Q 1534 4250 1286 3958 
Q 1038 3666 1038 3163 
Q 1038 2656 1286 2365 
Q 1534 2075 1959 2075 
z
" id="DejaVuSans-39" transform="scale(0.015625)"/>
     </defs>
     <use xlink:href="#DejaVuSans-412"/>
     <use x="68.603516" xlink:href="#DejaVuSans-440"/>
     <use x="132.080078" xlink:href="#DejaVuSans-435"/>
     <use x="193.603516" xlink:href="#DejaVuSans-43c"/>
     <use x="269.042969" xlink:href="#DejaVuSans-44f"/>
     <use x="329.199219" xlink:href="#DejaVuSans-20"/>
     <use x="360.986328" xlink:href="#DejaVuSans-440"/>
     <use x="424.462891" xlink:href="#DejaVuSans-430"/>
     <use x="485.742188" xlink:href="#DejaVuSans-437"/>
     <use x="538.916016" xlink:href="#DejaVuSans-440"/>
     <use x="602.392578" xlink:href="#DejaVuSans-44f"/>
     <use x="662.548828" xlink:href="#DejaVuSans-434"/>
     <use x="731.689453" xlink:href="#DejaVuSans-43a"/>
     <use x="792.089844" xlink:href="#DejaVuSans-438"/>
     <use x="857.080078" xlink:href="#DejaVuSans-20"/>
     <use x="888.867188" xlink:href="#DejaVuSans-7e"/>
     <use x="972.65625" xlink:href="#DejaVuSans-20"/>
     <use x="1004.443359" xlink:href="#DejaVuSans-36"/>
     <use x="1068.066406" xlink:href="#DejaVuSans-2e"/>
     <use x="1099.853516" xlink:href="#DejaVuSans-39"/>
     <use x="1163.476562" xlink:href="#DejaVuSans-441"/>
    </g>
   </g>
   <g id="text_17">
    <!-- U(t) of RC -->
    <g transform="translate(541.93125 80.4)scale(0.2 -0.2)">
     <defs>
      <path d="M 1984 4856 
Q 1566 4138 1362 3434 
Q 1159 2731 1159 2009 
Q 1159 1288 1364 580 
Q 1569 -128 1984 -844 
L 1484 -844 
Q 1016 -109 783 600 
Q 550 1309 550 2009 
Q 550 2706 781 3412 
Q 1013 4119 1484 4856 
L 1984 4856 
z
" id="DejaVuSans-28" transform="scale(0.015625)"/>
      <path d="M 513 4856 
L 1013 4856 
Q 1481 4119 1714 3412 
Q 1947 2706 1947 2009 
Q 1947 1309 1714 600 
Q 1481 -109 1013 -844 
L 513 -844 
Q 928 -128 1133 580 
Q 1338 1288 1338 2009 
Q 1338 2731 1133 3434 
Q 928 4138 513 4856 
z
" id="DejaVuSans-29" transform="scale(0.015625)"/>
      <path d="M 1959 3097 
Q 1497 3097 1228 2736 
Q 959 2375 959 1747 
Q 959 1119 1226 758 
Q 1494 397 1959 397 
Q 2419 397 2687 759 
Q 2956 1122 2956 1747 
Q 2956 2369 2687 2733 
Q 2419 3097 1959 3097 
z
M 1959 3584 
Q 2709 3584 3137 3096 
Q 3566 2609 3566 1747 
Q 3566 888 3137 398 
Q 2709 -91 1959 -91 
Q 1206 -91 779 398 
Q 353 888 353 1747 
Q 353 2609 779 3096 
Q 1206 3584 1959 3584 
z
" id="DejaVuSans-6f" transform="scale(0.015625)"/>
      <path d="M 2375 4863 
L 2375 4384 
L 1825 4384 
Q 1516 4384 1395 4259 
Q 1275 4134 1275 3809 
L 1275 3500 
L 2222 3500 
L 2222 3053 
L 1275 3053 
L 1275 0 
L 697 0 
L 697 3053 
L 147 3053 
L 147 3500 
L 697 3500 
L 697 3744 
Q 697 4328 969 4595 
Q 1241 4863 1831 4863 
L 2375 4863 
z
" id="DejaVuSans-66" transform="scale(0.015625)"/>
      <path d="M 2841 2188 
Q 3044 2119 3236 1894 
Q 3428 1669 3622 1275 
L 4263 0 
L 3584 0 
L 2988 1197 
Q 2756 1666 2539 1819 
Q 2322 1972 1947 1972 
L 1259 1972 
L 1259 0 
L 628 0 
L 628 4666 
L 2053 4666 
Q 2853 4666 3247 4331 
Q 3641 3997 3641 3322 
Q 3641 2881 3436 2590 
Q 3231 2300 2841 2188 
z
M 1259 4147 
L 1259 2491 
L 2053 2491 
Q 2509 2491 2742 2702 
Q 2975 2913 2975 3322 
Q 2975 3731 2742 3939 
Q 2509 4147 2053 4147 
L 1259 4147 
z
" id="DejaVuSans-52" transform="scale(0.015625)"/>
      <path d="M 4122 4306 
L 4122 3641 
Q 3803 3938 3442 4084 
Q 3081 4231 2675 4231 
Q 1875 4231 1450 3742 
Q 1025 3253 1025 2328 
Q 1025 1406 1450 917 
Q 1875 428 2675 428 
Q 3081 428 3442 575 
Q 3803 722 4122 1019 
L 4122 359 
Q 3791 134 3420 21 
Q 3050 -91 2638 -91 
Q 1578 -91 968 557 
Q 359 1206 359 2328 
Q 359 3453 968 4101 
Q 1578 4750 2638 4750 
Q 3056 4750 3426 4639 
Q 3797 4528 4122 4306 
z
" id="DejaVuSans-43" transform="scale(0.015625)"/>
     </defs>
     <use xlink:href="#DejaVuSans-55"/>
     <use x="73.193359" xlink:href="#DejaVuSans-28"/>
     <use x="112.207031" xlink:href="#DejaVuSans-74"/>
     <use x="151.416016" xlink:href="#DejaVuSans-29"/>
     <use x="190.429688" xlink:href="#DejaVuSans-20"/>
     <use x="222.216797" xlink:href="#DejaVuSans-6f"/>
     <use x="283.398438" xlink:href="#DejaVuSans-66"/>
     <use x="318.603516" xlink:href="#DejaVuSans-20"/>
     <use x="350.390625" xlink:href="#DejaVuSans-52"/>
     <use x="414.873047" xlink:href="#DejaVuSans-43"/>
    </g>
   </g>
   <g id="legend_1">
    <g id="patch_7">
     <path d="M 862.673437 154.434375 
L 1015.8 154.434375 
Q 1021.8 154.434375 1021.8 148.434375 
L 1021.8 107.4 
Q 1021.8 101.4 1015.8 101.4 
L 862.673437 101.4 
Q 856.673437 101.4 856.673437 107.4 
L 856.673437 148.434375 
Q 856.673437 154.434375 862.673437 154.434375 
z
" style="fill:#ffffff;opacity:0.8;stroke:#cccccc;stroke-linejoin:miter;"/>
    </g>
    <g id="line2d_114">
     <path d="M 868.673437 125.695312 
L 928.673437 125.695312 
" style="fill:none;stroke:#000000;stroke-linecap:square;"/>
    </g>
    <g id="line2d_115"/>
    <g id="text_18">
     <!-- U(t) -->
     <g transform="translate(952.673437 136.195312)scale(0.3 -0.3)">
      <use xlink:href="#DejaVuSans-55"/>
      <use x="73.193359" xlink:href="#DejaVuSans-28"/>
      <use x="112.207031" xlink:href="#DejaVuSans-74"/>
      <use x="151.416016" xlink:href="#DejaVuSans-29"/>
     </g>
    </g>
   </g>
  </g>
 </g>
 <defs>
  <clipPath id="pbf16995686">
   <rect height="554.4" width="892.8" x="144" y="86.4"/>
  </clipPath>
 </defs>
</svg>
